<svg id="visual" viewBox="0 0 960 540" width="960" height="540" xmlns="http://www.w3.org/2000/svg" xmlns:xlink="http://www.w3.org/1999/xlink" version="1.1"><rect x="0" y="0" width="960" height="540" fill="#001220"></rect><defs><linearGradient id="grad1_0" x1="43.8%" y1="100%" x2="100%" y2="0%"><stop offset="14.444444444444446%" stop-color="#001220" stop-opacity="1"></stop><stop offset="85.55555555555554%" stop-color="#001220" stop-opacity="1"></stop></linearGradient></defs><defs><linearGradient id="grad2_0" x1="0%" y1="100%" x2="56.3%" y2="0%"><stop offset="14.444444444444446%" stop-color="#001220" stop-opacity="1"></stop><stop offset="85.55555555555554%" stop-color="#001220" stop-opacity="1"></stop></linearGradient></defs><g transform="translate(960, 540)"><path d="M-432 0C-420.8 -75.7 -409.6 -151.5 -374.1 -216C-338.6 -280.5 -278.9 -333.9 -212.5 -368.1C-146.1 -402.2 -73.1 -417.1 0 -432L0 0Z" fill="#0e5895"></path></g><g transform="translate(0, 0)"><path d="M432 0C421 76.1 410 152.1 374.1 216C338.2 279.9 277.5 331.5 211 365.5C144.5 399.4 72.3 415.7 0 432L0 0Z" fill="#0e5895"></path></g></svg>